<svg width="143" height="37" viewBox="0 0 143 37" fill="none" xmlns="http://www.w3.org/2000/svg">
<path d="M0.9375 30.5469L1.54688 30.0781L1.59375 29.0938C2.375 27.1875 3.17188 25.3594 3.98438 23.6094C4.82812 21.8594 5.70312 20.0625 6.60938 18.2188C6.89062 17.625 7.17188 17.0312 7.45312 16.4375C7.76562 15.8438 8.0625 15.2344 8.34375 14.6094C8.3125 14.4844 8.29688 14.3594 8.29688 14.2344C8.29688 14.0781 8.32812 13.9062 8.39062 13.7188C8.82812 13.0938 9.17188 12.5312 9.42188 12.0312C9.70312 11.5312 9.96875 11.0156 10.2188 10.4844C10.5 9.85938 10.7969 9.23438 11.1094 8.60938C11.4531 7.98437 11.875 7.375 12.375 6.78125L12.7031 6.3125L13.2188 6.35938C13.3438 6.29687 13.4688 6.25 13.5938 6.21875C13.75 6.15625 13.9375 6.125 14.1562 6.125L15 6.26562C16.0312 5.79688 16.9375 5.125 17.7188 4.25C18.5312 3.34375 19.3438 2.26562 20.1562 1.01562L20.7188 0.21875L21.4688 0.6875C21.625 0.78125 21.875 0.875 22.2188 0.96875C22.5625 1.0625 22.9219 1.17188 23.2969 1.29688C23.9531 1.45313 24.5938 1.64063 25.2188 1.85938C25.8438 2.04688 26.3281 2.3125 26.6719 2.65625L26.9062 3.07812C26.9688 3.42188 27.0156 3.73438 27.0469 4.01562C27.1094 4.29688 27.1719 4.57812 27.2344 4.85938C27.3594 5.51562 27.4688 6.17188 27.5625 6.82812C27.6562 7.45313 27.7188 8.15625 27.75 8.9375C27.9062 9.5625 28.0469 10.2031 28.1719 10.8594C28.3281 11.4844 28.4688 12.1094 28.5938 12.7344C28.75 13.6406 28.9219 14.5156 29.1094 15.3594C29.2969 16.1719 29.5469 16.9531 29.8594 17.7031C30.1719 17.7031 30.3594 17.7188 30.4219 17.75C30.7969 17.5938 31.2344 17.5 31.7344 17.4688L32.3438 17.4219L32.5312 17.9844C32.5938 18.0781 32.6719 18.1719 32.7656 18.2656C32.8594 18.3594 32.9688 18.4531 33.0938 18.5469C33.5938 18.5781 33.9531 18.6875 34.1719 18.875C34.4219 19.0312 34.625 19.1875 34.7812 19.3438C34.8438 19.4062 34.9219 19.4844 35.0156 19.5781C35.1094 19.6406 35.1875 19.6875 35.25 19.7188L36.0938 20.0469L35.625 20.9375C35.2812 21.5938 34.75 22.2344 34.0312 22.8594C33.3438 23.4844 32.5625 24 31.6875 24.4062C31.75 24.625 31.7812 24.8281 31.7812 25.0156C31.8125 25.2031 31.8594 25.4219 31.9219 25.6719C32.0469 26.2969 32.1406 26.9531 32.2031 27.6406C32.2969 28.2969 32.2969 28.9844 32.2031 29.7031C31.8906 30.5156 31.5156 31.25 31.0781 31.9062C30.6719 32.5312 30.1719 33.1094 29.5781 33.6406C29.0156 34.1406 28.375 34.5625 27.6562 34.9062C26.9375 35.2188 26.1875 35.3906 25.4062 35.4219C24.9688 35.3281 24.6406 35.2188 24.4219 35.0938C24.2344 34.9688 24.0625 34.8438 23.9062 34.7188C23.6562 34.5312 23.4531 34.4062 23.2969 34.3438L22.6875 34.0625L22.875 33.3594C22.9688 33.1094 22.9531 32.8906 22.8281 32.7031C22.7344 32.5156 22.5156 32.2656 22.1719 31.9531C22.0469 31.8594 21.9375 31.7656 21.8438 31.6719C21.75 31.5469 21.6406 31.4219 21.5156 31.2969L20.5781 30.2188L22.125 29.7969C23.0625 29.5469 23.6875 29.2344 24 28.8594C24.3125 28.4531 24.4375 27.75 24.375 26.75C23.5938 26.5938 22.9531 26.5781 22.4531 26.7031C21.9531 26.7969 21.4531 26.9062 20.9531 27.0312C20.2344 27.2188 19.5312 27.3906 18.8438 27.5469C18.1562 27.6719 17.4062 27.7344 16.5938 27.7344C16.0625 27.7344 15.5 27.6875 14.9062 27.5938L14.3906 27.5469L14.25 27.0312C14.25 26.9688 14.2031 26.9062 14.1094 26.8438C14.0469 26.75 13.9844 26.6719 13.9219 26.6094C13.7656 26.4219 13.5781 26.1719 13.3594 25.8594C13.1406 25.5469 13.0938 25.1562 13.2188 24.6875C13 24.3438 12.875 23.9844 12.8438 23.6094C12.7188 23.8594 12.6094 24.1094 12.5156 24.3594C12.4531 24.5781 12.3906 24.7969 12.3281 25.0156L12.1406 25.625L11.5312 25.7188C11.4688 25.7812 11.4062 25.875 11.3438 26C11.3125 26.125 11.3125 26.2188 11.3438 26.2812L11.5312 26.7969L11.0625 27.2188C11 27.3125 10.9219 27.3906 10.8281 27.4531C10.7344 27.5156 10.6562 27.5781 10.5938 27.6406C10.5312 27.9844 10.4375 28.3125 10.3125 28.625C10.2188 28.9375 10.1094 29.25 9.98438 29.5625C9.82812 30.0625 9.67188 30.5469 9.51562 31.0156C9.39062 31.4844 9.32812 31.9531 9.32812 32.4219L9.14062 33.0312C8.98438 33.2812 8.78125 33.4688 8.53125 33.5938C8.3125 33.7188 8.09375 33.8281 7.875 33.9219C7.5625 34.0469 7.34375 34.1719 7.21875 34.2969L7.07812 34.9062L6.375 35C5.96875 35.0938 5.67188 35.1562 5.48438 35.1875C5.32812 35.2188 5.14062 35.2344 4.92188 35.2344L4.3125 35.1875C3.9375 34.8125 3.625 34.5312 3.375 34.3438C3.15625 34.125 2.89062 33.9375 2.57812 33.7812L2.29688 33.4062C2.17188 33.1562 2.09375 32.9375 2.0625 32.75C2.03125 32.5312 1.98438 32.3125 1.92188 32.0938C1.85938 31.6875 1.76562 31.4062 1.64062 31.25L0.9375 30.5469ZM15.8906 18.3594C15.4531 18.9844 15.0312 19.6406 14.625 20.3281C14.8438 20.2969 15.0469 20.2812 15.2344 20.2812C15.4531 20.2812 15.6719 20.2656 15.8906 20.2344C16.9844 20.1719 18 20.0938 18.9375 20C19.875 19.9062 20.8906 19.75 21.9844 19.5312C21.7344 18.375 21.4531 17.2031 21.1406 16.0156C20.8594 14.7969 20.5469 13.5781 20.2031 12.3594L19.9688 12.8281C19.1875 13.6719 18.4375 14.5781 17.7188 15.5469C17 16.5156 16.4062 17.4375 15.9375 18.3125L15.8906 18.3594ZM43.4062 30.125C43.0625 31.375 42.75 32.3281 42.4688 32.9844C42.2188 33.6094 41.8281 34.2656 41.2969 34.9531C40.8906 34.8906 40.6094 34.9375 40.4531 35.0938C40.2969 35.25 40.125 35.3906 39.9375 35.5156C39.6562 35.5781 39.4531 35.5781 39.3281 35.5156C39.2031 35.4531 39.0938 35.375 39 35.2812C38.9062 35.2188 38.7812 35.1406 38.625 35.0469C38.5 34.9844 38.2969 34.9531 38.0156 34.9531C37.9531 34.7031 37.875 34.4688 37.7812 34.25C37.7188 34.0312 37.5156 33.9531 37.1719 34.0156C37.2344 33.7656 37.25 33.5625 37.2188 33.4062C37.1875 33.2188 37.1406 33.0625 37.0781 32.9375C37.0469 32.7812 37.0156 32.6406 36.9844 32.5156C36.9531 32.3594 36.9688 32.1719 37.0312 31.9531C36.875 31.9531 36.75 31.8438 36.6562 31.625C36.5625 31.4062 36.4531 31.1875 36.3281 30.9688C36.4219 30.4062 36.5156 29.875 36.6094 29.375C36.7031 28.875 36.8125 28.4062 36.9375 27.9688C37.0938 27.5312 37.2188 27.0938 37.3125 26.6562C37.4062 26.2188 37.3594 25.7656 37.1719 25.2969C37.2969 25.3906 37.3906 25.375 37.4531 25.25C37.5156 25.0938 37.5625 24.9062 37.5938 24.6875C37.625 24.4375 37.6406 24.2031 37.6406 23.9844C37.6406 23.7344 37.625 23.5312 37.5938 23.375C37.9062 22.5625 38.1562 21.7344 38.3438 20.8906C38.5625 20.0156 38.75 19.1562 38.9062 18.3125C39.0938 17.4688 39.2812 16.6406 39.4688 15.8281C39.6562 15.0156 39.9062 14.2656 40.2188 13.5781C40.5625 13.5156 40.9375 13.5625 41.3438 13.7188C41.7812 13.8438 42.0469 14.0156 42.1406 14.2344C42.9531 13.6094 43.6719 12.8594 44.2969 11.9844C44.9219 11.0781 45.5625 10.2031 46.2188 9.35938C46.875 8.51562 47.5938 7.76562 48.375 7.10938C49.1875 6.45312 50.2031 6.0625 51.4219 5.9375C52.0469 6.40625 52.7344 6.89063 53.4844 7.39062C54.2656 7.85938 54.9062 8.48438 55.4062 9.26562C55.6562 9.39062 55.8594 9.53125 56.0156 9.6875C56.2031 9.8125 56.4219 9.95312 56.6719 10.1094V10.6719C57.0469 11.0156 57.3438 11.4219 57.5625 11.8906C57.8125 12.3281 58.0312 12.8125 58.2188 13.3438C58.4062 13.8438 58.5938 14.3594 58.7812 14.8906C58.9688 15.3906 59.1875 15.875 59.4375 16.3438C59.375 16.5 59.3438 16.6406 59.3438 16.7656C59.3438 16.8594 59.3594 16.9688 59.3906 17.0938C59.4531 17.2188 59.5 17.3438 59.5312 17.4688C59.5625 17.5938 59.5625 17.7656 59.5312 17.9844C59.4375 19.3594 58.9844 20.4688 58.1719 21.3125C57.3906 22.1562 56.4375 22.8594 55.3125 23.4219C54.1875 23.9531 52.9844 24.4062 51.7031 24.7812C50.4219 25.1562 49.2656 25.5625 48.2344 26C48.2344 26.125 48.2812 26.1875 48.375 26.1875C48.5 26.1875 48.5469 26.2656 48.5156 26.4219C49.2656 26.8906 49.8594 27.2656 50.2969 27.5469C50.7344 27.8281 51.1406 28.0625 51.5156 28.25C51.9219 28.4375 52.3438 28.6094 52.7812 28.7656C53.25 28.8906 53.8906 29.0469 54.7031 29.2344C55.5156 29.4219 56.1406 29.5781 56.5781 29.7031C57.0469 29.7969 57.4688 29.8906 57.8438 29.9844C58.2188 30.0469 58.5938 30.1094 58.9688 30.1719C59.375 30.2031 59.9375 30.25 60.6562 30.3125C60.9375 30.5938 61.1719 30.9375 61.3594 31.3438C61.5781 31.7188 61.7188 32.1094 61.7812 32.5156C61.8438 32.8906 61.8594 33.2656 61.8281 33.6406C61.7969 33.9844 61.6875 34.2656 61.5 34.4844C61.5312 34.5781 61.5938 34.625 61.6875 34.625C61.8125 34.5938 61.9375 34.5938 62.0625 34.625C61.875 34.75 61.7188 34.9062 61.5938 35.0938C61.4688 35.2812 61.3438 35.4688 61.2188 35.6562C61.0938 35.8438 60.9531 36 60.7969 36.125C60.6406 36.2812 60.4219 36.375 60.1406 36.4062C59.1719 36.7812 57.9531 36.7969 56.4844 36.4531C55.0156 36.1406 53.1562 35.5469 50.9062 34.6719C49.7812 34.2344 48.8594 33.8594 48.1406 33.5469C47.4531 33.2031 46.8438 32.875 46.3125 32.5625C45.8125 32.2188 45.3438 31.8594 44.9062 31.4844C44.5 31.1094 44 30.6562 43.4062 30.125ZM50.1094 14.0469C49.7656 14.5469 49.375 15 48.9375 15.4062C48.5312 15.8125 48.125 16.2344 47.7188 16.6719C47.3438 17.0781 47 17.5469 46.6875 18.0781C46.375 18.5781 46.1562 19.1719 46.0312 19.8594C47.125 19.7344 48.2656 19.4375 49.4531 18.9688C50.6406 18.4688 51.7656 18 52.8281 17.5625C52.7031 16.5938 52.3594 15.8125 51.7969 15.2188C51.2656 14.625 50.7031 14.2344 50.1094 14.0469ZM87.9844 8.60938C88.0156 8.82812 88.0156 9 87.9844 9.125C87.9844 9.21875 87.9688 9.3125 87.9375 9.40625C87.9375 9.5 87.9375 9.60938 87.9375 9.73438C87.9375 9.82812 87.9688 9.98438 88.0312 10.2031C87.375 11.2656 86.6094 12 85.7344 12.4062C84.8906 12.7812 83.9688 13.0625 82.9688 13.25C81.9688 13.4062 80.9375 13.5781 79.875 13.7656C78.8438 13.9531 77.8125 14.3594 76.7812 14.9844C76.375 14.8281 76 14.8281 75.6562 14.9844C75.3438 15.1406 74.875 15.1875 74.25 15.125C74.0625 15.3125 73.8281 15.4531 73.5469 15.5469C73.2656 15.6094 72.9844 15.6875 72.7031 15.7812C72.8281 16.0625 72.875 16.3594 72.8438 16.6719C72.8438 16.9531 72.8906 17.1875 72.9844 17.375C74.0781 17.4688 75.2812 17.4531 76.5938 17.3281C77.9375 17.2031 79.25 17.125 80.5312 17.0938C80.5625 17.25 80.5469 17.3594 80.4844 17.4219C80.4219 17.4531 80.4062 17.5312 80.4375 17.6562C80.6562 17.8125 80.875 18.0156 81.0938 18.2656C81.3125 18.4844 81.5312 18.7031 81.75 18.9219C81.9688 19.1406 82.1875 19.3281 82.4062 19.4844C82.6562 19.6094 82.9375 19.6562 83.25 19.625C83.375 19.875 83.4531 20.1562 83.4844 20.4688C83.5469 20.75 83.5156 21.0469 83.3906 21.3594C82.8906 21.7031 82.3906 22.0625 81.8906 22.4375C81.3906 22.7812 80.8594 23.0938 80.2969 23.375C79.7656 23.6562 79.1875 23.8906 78.5625 24.0781C77.9688 24.2344 77.2969 24.2969 76.5469 24.2656C76.3906 24.2656 76.2656 24.2656 76.1719 24.2656C76.1094 24.2656 76.0156 24.2188 75.8906 24.125C75.6406 24.2812 75.2812 24.3281 74.8125 24.2656C74.375 24.2031 74.0312 24.25 73.7812 24.4062C73.4375 24.25 73.0156 24.1875 72.5156 24.2188C72.0469 24.2188 71.625 24.1562 71.25 24.0312C70.75 24.6875 70.2969 25.3906 69.8906 26.1406C69.4844 26.8906 69.125 27.6875 68.8125 28.5312C69.875 28.6875 70.75 28.75 71.4375 28.7188C72.1562 28.6875 72.8281 28.6406 73.4531 28.5781C74.0781 28.4844 74.7188 28.4062 75.375 28.3438C76.0312 28.25 76.8594 28.2188 77.8594 28.25C78.4844 27.9062 79.2188 27.6875 80.0625 27.5938C80.9375 27.4688 81.7344 27.2812 82.4531 27.0312C82.7031 27.125 82.9219 27.2969 83.1094 27.5469C83.2969 27.7656 83.4688 27.9844 83.625 28.2031C83.8125 28.3906 84 28.5625 84.1875 28.7188C84.375 28.875 84.6094 28.9375 84.8906 28.9062C85.0156 29.0312 85.0938 29.1875 85.125 29.375C85.1875 29.5312 85.2344 29.6875 85.2656 29.8438C85.2969 30 85.3438 30.1406 85.4062 30.2656C85.5 30.3594 85.6406 30.3906 85.8281 30.3594C85.3594 31.3906 84.8125 32.1875 84.1875 32.75C83.5938 33.2812 82.9062 33.6875 82.125 33.9688C81.3438 34.25 80.4688 34.4688 79.5 34.625C78.5625 34.7812 77.5156 34.9688 76.3594 35.1875C76.0781 35.25 75.8438 35.2344 75.6562 35.1406C75.4688 35.0781 75.25 35.0469 75 35.0469C74.2812 35.2031 73.4219 35.3438 72.4219 35.4688C71.4219 35.5938 70.4062 35.6406 69.375 35.6094C68.3438 35.5781 67.3594 35.4375 66.4219 35.1875C65.4844 34.9688 64.7188 34.5625 64.125 33.9688C63.875 33.75 63.7031 33.5 63.6094 33.2188C63.5469 32.9062 63.3438 32.6719 63 32.5156C62.9688 32.1094 62.9062 31.6562 62.8125 31.1562C62.7188 30.6562 62.625 30.1406 62.5312 29.6094C62.4375 29.0469 62.3594 28.5 62.2969 27.9688C62.2656 27.4375 62.2969 26.9531 62.3906 26.5156C62.4844 26.0469 62.6719 25.625 62.9531 25.25C63.2656 24.875 63.375 24.4688 63.2812 24.0312C63.4375 24 63.5312 23.9219 63.5625 23.7969C63.5938 23.6406 63.7188 23.5781 63.9375 23.6094C64.125 23.0469 64.3281 22.5156 64.5469 22.0156C64.7656 21.5156 64.9844 21.0312 65.2031 20.5625C65.4531 20.0938 65.6875 19.625 65.9062 19.1562C66.1562 18.6562 66.3906 18.1094 66.6094 17.5156C66.1719 17.1094 65.8438 16.6719 65.625 16.2031C65.4375 15.7031 65.2969 15.2188 65.2031 14.75C65.1094 14.25 65.0312 13.75 64.9688 13.25C64.9062 12.7188 64.7969 12.1875 64.6406 11.6562C64.9531 11.1875 65.3281 10.8125 65.7656 10.5312C66.2344 10.2188 66.7344 9.96875 67.2656 9.78125C67.7969 9.59375 68.375 9.4375 69 9.3125C69.625 9.1875 70.2812 9.04688 70.9688 8.89062C72.2188 8.48438 73.3281 8.17187 74.2969 7.95312C75.2969 7.73438 76.2656 7.5625 77.2031 7.4375C78.1719 7.28125 79.1719 7.14062 80.2031 7.01562C81.2344 6.89063 82.4062 6.70313 83.7188 6.45312C84 6.73438 84.2656 6.875 84.5156 6.875C84.6406 6.59375 84.7812 6.51563 84.9375 6.64062C85.125 6.73438 85.2031 6.64062 85.1719 6.35938C85.4844 6.89063 85.875 7.34375 86.3438 7.71875C86.8438 8.0625 87.3906 8.35937 87.9844 8.60938ZM96.4688 26.4688C96.1875 26.5312 95.9844 26.7031 95.8594 26.9844C95.7344 27.2344 95.6094 27.5 95.4844 27.7812C95.3906 28.0625 95.2812 28.3281 95.1562 28.5781C95.0625 28.7969 94.9062 28.9062 94.6875 28.9062C94.6562 29.1562 94.5625 29.375 94.4062 29.5625C94.2812 29.75 94.1562 29.9531 94.0312 30.1719C93.9062 30.3594 93.8125 30.5781 93.75 30.8281C93.6875 31.0469 93.7188 31.3125 93.8438 31.625C93.5938 31.8125 93.4375 32.0781 93.375 32.4219C93.3125 32.7656 93.2344 33.0938 93.1406 33.4062C93.0781 33.7188 92.9531 33.9844 92.7656 34.2031C92.5781 34.4219 92.2344 34.5156 91.7344 34.4844C91.6406 34.6094 91.625 34.6875 91.6875 34.7188C91.75 34.75 91.7969 34.8594 91.8281 35.0469C91.4844 34.9844 91.2188 35 91.0312 35.0938C90.875 35.2188 90.6719 35.2969 90.4219 35.3281C89.8281 35.1406 89.3281 34.8125 88.9219 34.3438C88.5469 33.875 88.2031 33.3594 87.8906 32.7969C87.6094 32.2031 87.3438 31.6094 87.0938 31.0156C86.875 30.4219 86.6562 29.9062 86.4375 29.4688C86.5312 29.125 86.5469 28.7969 86.4844 28.4844C86.4219 28.1406 86.3125 27.8594 86.1562 27.6406C87.6875 24.3906 89.3594 20.9219 91.1719 17.2344C92.9844 13.5469 94.7031 9.90625 96.3281 6.3125C97.0469 6.59375 97.75 6.92188 98.4375 7.29688C99.1562 7.64063 99.7969 8.04688 100.359 8.51562C100.953 8.98438 101.453 9.53125 101.859 10.1562C102.266 10.75 102.531 11.4219 102.656 12.1719C102.594 12.3594 102.516 12.4375 102.422 12.4062C102.359 12.3438 102.297 12.3594 102.234 12.4531C102.359 12.6094 102.422 12.7188 102.422 12.7812C102.453 12.8438 102.453 12.9062 102.422 12.9688C102.422 13.0312 102.422 13.125 102.422 13.25C102.422 13.3438 102.469 13.4844 102.562 13.6719C102.438 13.6406 102.344 13.6562 102.281 13.7188C102.25 13.7812 102.156 13.7812 102 13.7188C102.125 14.0625 102.156 14.3438 102.094 14.5625C102.062 14.7812 102 14.9844 101.906 15.1719C101.812 15.3281 101.734 15.5156 101.672 15.7344C101.609 15.9219 101.625 16.1719 101.719 16.4844C101.625 16.4844 101.547 16.5156 101.484 16.5781C101.453 16.6094 101.422 16.6562 101.391 16.7188C101.359 16.75 101.312 16.7969 101.25 16.8594C101.219 16.8906 101.156 16.8906 101.062 16.8594C101.156 17.5469 101.188 18.2344 101.156 18.9219C101.125 19.6094 101.094 20.3125 101.062 21.0312C101.062 21.7188 101.078 22.4531 101.109 23.2344C101.141 23.9844 101.25 24.7656 101.438 25.5781C102.562 24.9219 103.453 24.0781 104.109 23.0469C104.797 22.0156 105.344 20.8594 105.75 19.5781C106.188 18.2969 106.516 16.9219 106.734 15.4531C106.953 13.9844 107.188 12.4844 107.438 10.9531C107.719 10.6719 107.938 10.3281 108.094 9.92188C108.25 9.51562 108.391 9.09375 108.516 8.65625C108.641 8.1875 108.766 7.73438 108.891 7.29688C109.016 6.82812 109.172 6.40625 109.359 6.03125C109.828 6.09375 110.219 6.25 110.531 6.5C110.875 6.71875 111.188 6.96875 111.469 7.25C111.75 7.5 112.047 7.75 112.359 8C112.672 8.21875 113.062 8.35937 113.531 8.42188C113.906 8.95313 114.25 9.46875 114.562 9.96875C114.875 10.4688 115.078 11 115.172 11.5625C115.016 11.8125 114.891 12.0938 114.797 12.4062C114.734 12.7188 114.656 13.0312 114.562 13.3438C114.469 13.6562 114.344 13.9531 114.188 14.2344C114.031 14.4844 113.812 14.7031 113.531 14.8906C113.438 15.7031 113.312 16.4531 113.156 17.1406C113.031 17.7969 112.891 18.4531 112.734 19.1094C112.609 19.7656 112.5 20.4531 112.406 21.1719C112.312 21.8594 112.281 22.625 112.312 23.4688C112.062 24.1875 111.797 24.9531 111.516 25.7656C111.234 26.5781 111.016 27.3125 110.859 27.9688C110.359 28.375 109.969 28.8594 109.688 29.4219C109.406 29.9844 109.109 30.5469 108.797 31.1094C108.672 31.2344 108.594 31.2656 108.562 31.2031C108.531 31.1406 108.422 31.0938 108.234 31.0625C108.266 31.1875 108.266 31.2812 108.234 31.3438C108.203 31.4062 108.156 31.4688 108.094 31.5312C108.062 31.5625 108.031 31.625 108 31.7188C108 31.8125 108.031 31.9375 108.094 32.0938C107.656 32.2812 107.266 32.5469 106.922 32.8906C106.578 33.2344 106.203 33.5469 105.797 33.8281C105.422 34.1094 104.953 34.2969 104.391 34.3906C103.859 34.4844 103.156 34.375 102.281 34.0625C101 33.125 99.8594 32.0469 98.8594 30.8281C97.8906 29.6094 97.0938 28.1562 96.4688 26.4688ZM138.75 31.0625C138.562 31.5938 138.281 32.1406 137.906 32.7031C137.562 33.2344 137.141 33.7188 136.641 34.1562C136.172 34.5625 135.641 34.9062 135.047 35.1875C134.453 35.4688 133.828 35.625 133.172 35.6562C132.766 35.5625 132.484 35.4531 132.328 35.3281C132.203 35.2344 132.062 35.1406 131.906 35.0469C131.812 34.9844 131.719 34.9375 131.625 34.9062C131.562 34.8438 131.5 34.7969 131.438 34.7656L130.875 34.5312L131.062 33.9219C131.125 33.6719 131.109 33.4844 131.016 33.3594C130.922 33.2031 130.734 33 130.453 32.75C130.359 32.6562 130.266 32.5625 130.172 32.4688C130.078 32.375 130 32.2812 129.938 32.1875L129.141 31.2969L130.406 30.9688C131.188 30.75 131.703 30.4688 131.953 30.125C132.234 29.7812 132.344 29.2031 132.281 28.3906C131.656 28.2656 131.125 28.25 130.688 28.3438C130.281 28.4375 129.859 28.5469 129.422 28.6719C128.859 28.8281 128.281 28.9688 127.688 29.0938C127.125 29.1875 126.5 29.2344 125.812 29.2344C125.562 29.2344 125.328 29.2344 125.109 29.2344C124.891 29.2031 124.656 29.1719 124.406 29.1406L123.938 29.0469C123.875 28.7031 123.812 28.5156 123.75 28.4844C123.688 28.4219 123.625 28.3594 123.562 28.2969C123.406 28.1406 123.234 27.9375 123.047 27.6875C122.891 27.4062 122.859 27.0625 122.953 26.6562C122.797 26.375 122.703 26.0938 122.672 25.8125C122.484 26.1875 122.344 26.5781 122.25 26.9844L122.062 27.4531L121.594 27.5469C121.531 27.5781 121.484 27.6562 121.453 27.7812C121.422 27.875 121.406 27.9531 121.406 28.0156L121.172 28.8125C121.109 28.875 121.047 28.9375 120.984 29C120.922 29.0312 120.859 29.0781 120.797 29.1406C120.734 29.4219 120.656 29.7031 120.562 29.9844C120.469 30.2656 120.375 30.5312 120.281 30.7812C120.125 31.1875 119.984 31.5938 119.859 32C119.766 32.375 119.734 32.75 119.766 33.125L119.578 33.6406C119.422 33.8281 119.25 33.9844 119.062 34.1094C118.875 34.2031 118.688 34.2969 118.5 34.3906C118.438 34.4531 118.344 34.5156 118.219 34.5781C118.125 34.6094 118.047 34.6406 117.984 34.6719L117.844 35.1875L117.281 35.2812C116.938 35.3438 116.688 35.3906 116.531 35.4219C116.406 35.4531 116.25 35.4688 116.062 35.4688L115.594 35.4219C115.25 35.1406 114.984 34.9219 114.797 34.7656C114.609 34.5781 114.391 34.4062 114.141 34.25C113.859 33.875 113.703 33.5938 113.672 33.4062C113.641 33.2188 113.609 33.0469 113.578 32.8906C113.516 32.7031 113.484 32.5469 113.484 32.4219C113.453 32.2969 113.406 32.2031 113.344 32.1406L112.734 31.5781L113.25 31.1562L113.297 30.3594C113.922 28.7656 114.578 27.2344 115.266 25.7656C115.984 24.2969 116.719 22.7969 117.469 21.2656C117.719 20.7656 117.953 20.2656 118.172 19.7656C118.422 19.2656 118.672 18.7656 118.922 18.2656C118.891 18.1719 118.875 18.0625 118.875 17.9375C118.875 17.8125 118.906 17.6719 118.969 17.5156C119.312 16.9844 119.594 16.5156 119.812 16.1094C120.031 15.6719 120.25 15.2344 120.469 14.7969C120.719 14.2656 120.969 13.75 121.219 13.25C121.5 12.75 121.844 12.2344 122.25 11.7031L123 11.375C123.094 11.3438 123.203 11.3125 123.328 11.2812C123.453 11.2188 123.594 11.1875 123.75 11.1875L124.453 11.2812C125.328 10.875 126.094 10.3125 126.75 9.59375C127.406 8.84375 128.078 7.95312 128.766 6.92188L129.234 6.26562L129.844 6.64062C130 6.73438 130.219 6.82812 130.5 6.92188C130.781 6.98438 131.078 7.0625 131.391 7.15625C131.953 7.28125 132.484 7.42187 132.984 7.57812C133.484 7.73438 133.891 7.96875 134.203 8.28125C134.391 8.78125 134.5 9.15625 134.531 9.40625C134.562 9.65625 134.609 9.90625 134.672 10.1562C134.766 10.6875 134.844 11.2188 134.906 11.75C135 12.2812 135.062 12.875 135.094 13.5312C135.25 14.0625 135.375 14.5938 135.469 15.125C135.594 15.625 135.703 16.1406 135.797 16.6719C135.953 17.4219 136.109 18.1562 136.266 18.875C136.422 19.5625 136.625 20.2188 136.875 20.8438C137.125 20.8438 137.281 20.8594 137.344 20.8906C137.5 20.8281 137.656 20.7812 137.812 20.75C138 20.7188 138.203 20.6875 138.422 20.6562L138.938 20.6094L139.125 21.0781C139.156 21.2344 139.312 21.3906 139.594 21.5469C140 21.5781 140.297 21.6719 140.484 21.8281C140.672 21.9531 140.844 22.0938 141 22.25C141.125 22.375 141.25 22.4688 141.375 22.5312L142.078 22.8125L141.703 23.5156C141.391 24.0781 140.938 24.625 140.344 25.1562C139.781 25.6562 139.141 26.0781 138.422 26.4219C138.453 26.6094 138.469 26.7969 138.469 26.9844C138.5 27.1406 138.547 27.3125 138.609 27.5C138.703 28.0312 138.781 28.5781 138.844 29.1406C138.906 29.7031 138.906 30.2812 138.844 30.875L138.75 31.0625ZM125.203 22.9531C126.141 22.8906 126.984 22.8281 127.734 22.7656C128.516 22.6719 129.375 22.5312 130.312 22.3438C130.094 21.4062 129.859 20.4375 129.609 19.4375C129.359 18.4062 129.094 17.3906 128.812 16.3906L128.531 16.8594C127.906 17.5156 127.297 18.25 126.703 19.0625C126.141 19.875 125.656 20.6406 125.25 21.3594C125.062 21.6406 124.875 21.9219 124.688 22.2031C124.5 22.4844 124.328 22.7656 124.172 23.0469C124.359 23.0156 124.531 23 124.688 23C124.875 23 125.047 22.9844 125.203 22.9531Z" fill="#1D8FBD"/>
</svg>
