<svg aria-hidden="true" style="position: absolute; width: 0; height: 0; overflow: hidden;" version="1.1" xmlns="http://www.w3.org/2000/svg" xmlns:xlink="http://www.w3.org/1999/xlink">
<defs>
<symbol id="icon-arrow-right2" viewBox="0 0 32 32">
<path d="M19.414 27.414l10-10c0.781-0.781 0.781-2.047 0-2.828l-10-10c-0.781-0.781-2.047-0.781-2.828 0s-0.781 2.047 0 2.828l6.586 6.586h-19.172c-1.105 0-2 0.895-2 2s0.895 2 2 2h19.172l-6.586 6.586c-0.39 0.39-0.586 0.902-0.586 1.414s0.195 1.024 0.586 1.414c0.781 0.781 2.047 0.781 2.828 0z"></path>
</symbol>
<symbol id="icon-arrow-left2" viewBox="0 0 32 32">
<path d="M12.586 27.414l-10-10c-0.781-0.781-0.781-2.047 0-2.828l10-10c0.781-0.781 2.047-0.781 2.828 0s0.781 2.047 0 2.828l-6.586 6.586h19.172c1.105 0 2 0.895 2 2s-0.895 2-2 2h-19.172l6.586 6.586c0.39 0.39 0.586 0.902 0.586 1.414s-0.195 1.024-0.586 1.414c-0.781 0.781-2.047 0.781-2.828 0z"></path>
</symbol>
<symbol id="icon-move-up" viewBox="0 0 32 32">
<path d="M22 16v12h2v-12h5l-6-6-6 6z"></path>
<path d="M2 6h3v2h-3v-2z"></path>
<path d="M6 6h3v2h-3v-2z"></path>
<path d="M10 6h2v3h-2v-3z"></path>
<path d="M2 13h2v3h-2v-3z"></path>
<path d="M5 14h3v2h-3v-2z"></path>
<path d="M9 14h3v2h-3v-2z"></path>
<path d="M2 9h2v3h-2v-3z"></path>
<path d="M10 10h2v3h-2v-3z"></path>
<path d="M10 22v6h-6v-6h6zM12 20h-10v10h10v-10z"></path>
</symbol>
<symbol id="icon-move-down" viewBox="0 0 32 32">
<path d="M24 22v-12h-2v12h-5l6 6 6-6z"></path>
<path d="M10 8v6h-6v-6h6zM12 6h-10v10h10v-10z"></path>
<path d="M2 20h3v2h-3v-2z"></path>
<path d="M6 20h3v2h-3v-2z"></path>
<path d="M10 20h2v3h-2v-3z"></path>
<path d="M2 27h2v3h-2v-3z"></path>
<path d="M5 28h3v2h-3v-2z"></path>
<path d="M9 28h3v2h-3v-2z"></path>
<path d="M2 23h2v3h-2v-3z"></path>
<path d="M10 24h2v3h-2v-3z"></path>
</symbol>
</defs>
</svg>
